<svg version="1" xmlns="http://www.w3.org/2000/svg" width="2666.667" height="2666.667" viewBox="0 0 2000.000000 2000.000000"><path d="M954.6 319.5c-3.3.7-11.8 1.6-19 2-14.5.8-21.6 2.9-31.2 9-2.9 1.9-8 4.8-11.2 6.4-4.1 2.1-7.8 5.2-12.3 10.2-8.8 10-18.8 17.1-31.7 22.6-7 2.9-14.6 7.3-22.1 12.5-8.5 6-13.4 8.7-19.8 10.9-4.7 1.6-9 3.3-9.7 3.8-.6.5-2.2 1.2-3.6 1.6-1.4.4-3.6 1.5-5 2.5-1.4.9-4.1 2.3-6 3-3.6 1.4-23.3 16.3-30.5 23-2.2 2.1-6 5-8.5 6.5-2.5 1.6-7 5.5-10 8.8-3 3.3-10.5 11.2-16.6 17.6-6 6.4-14.3 16.1-18.3 21.6-4.1 5.5-8.6 11.3-10.1 13-9.4 10.4-33.5 67.3-37 87.5-.6 3.6-3.1 12.7-5.6 20.3-5.6 17.1-11.4 54.2-11.4 72.4 0 6.1-.9 17.2-1.9 24.5-3 20.2-4.3 36.2-3.6 42.6 1.2 10.2 8.5 57.4 10.6 68.2 3.6 18.4 15.3 55 21.5 67.1 1.8 3.7 4.1 5.9 10.7 10.3 9.6 6.4 10.7 7.6 16.6 16.9 5.9 9.1 8.7 17.4 10.6 30.8 1.7 12.6 4.5 24.8 8 35.4 1.2 3.8 3.1 9.7 4 13 1.8 6.5 5.7 16.6 6.1 16.2.2-.2-.2-7-.8-15.2-2.2-27.8-1.2-63.4 2.3-82.5.5-3 1.6-13.8 2.4-24 .9-10.2 2-22.6 2.5-27.5.5-5 1.4-13.7 1.9-19.5.6-5.8 1.6-14.6 2.1-19.5.6-5 1.2-10.2 1.2-11.7.1-1.5.4-2.5.8-2.3.4.3 1-.9 1.4-2.7.3-1.7 1.8-4.1 3.2-5.3 1.7-1.4 2.5-2.9 2.1-3.9-.4-.9.1-1.7 1.4-2.1 1-.4 1.9-1.5 1.9-2.5s.5-2 1.1-2.2c1.4-.5 5-9.8 4.3-10.9-.3-.5.2-.6 1-.3 1.1.4 1.6 0 1.6-1 0-2.6 3.9-12.9 5.1-13.7.6-.4.8-1.2.4-1.8-.4-.7-.1-1.8.5-2.6s1.4-3.1 1.6-5.2c.2-2.1.6-4.5.7-5.3.2-.8.7-4.2 1.1-7.5.5-3.3 1.4-6.3 2-6.7.6-.4 1.2-1.8 1.3-3 .4-6.6 2.7-16.5 4.2-18.2.9-1 1.7-3.7 1.9-6 .5-9.2.7-10.6 1.5-10.6.4 0 .7.4.7 1 0 .5.5 1 1 1 .6 0 1-1.7 1-3.9 0-2.1.6-4.4 1.4-5 .8-.7 1.8-2.6 2.1-4.2.4-1.6 1.1-2.9 1.6-2.9.6 0 .8-.4.5-.9-.4-.5-.2-1.1.2-1.3 1.6-.6 8.2-10 8.2-11.6 0-1.9 10-11.3 11.2-10.6.4.3.8-.1.8-.8 0-.8 1.3-2.2 3-3.1 1.6-1 3.9-3.1 5-4.7 1.2-1.7 2.7-3 3.3-3 .7 0 2.5-1.1 4.1-2.5 1.6-1.3 3.2-2.2 3.6-2 .5.3 1 0 1.2-.6.2-.7 1.5-1.3 2.9-1.4 1.3-.1 2.9-1.1 3.5-2.3.6-1.2 1.3-1.9 1.7-1.6.3.3 3.2-.2 6.4-1.1 5.9-1.8 8.3-2.3 14-2.9 1.8-.2 3.9-.9 4.7-1.5.8-.7 2-1 2.6-.6.5.3 1 .2 1-.4 0-.6 1.2-1 2.8-1 2.4.1 7.1-.4 15.6-1.6 1.6-.2 3.2-.8 3.5-1.3.7-1.1 3.9-1.9 10.6-2.7 2.8-.3 6.4-1.1 8.1-1.6 1.6-.5 5.4-1 8.2-1 2.9-.1 5.4-.5 5.6-.8.3-.4 2.4-.6 4.8-.6 2.4.1 4.6-.3 4.9-.8.9-1.2 8.1-2.7 10.1-2.1 1 .3 3.3.1 5.3-.5 2.4-.6 3.5-.6 3.5.1s.5.7 1.3-.1c.8-.6 4.8-1.2 9-1.3 4.2-.2 7.7-.6 7.7-.9 0-.3 5.4-.5 12-.4 7.1.2 12.3-.1 12.6-.7.4-.6 1-.5 1.6.3.7 1.1 1.1 1.1 1.5.1.6-1.5 11.3-1.7 11.3-.2 0 1 5 .3 6-.9.8-.9 29.8-.7 35.3.3 3.7.7 4.7.5 4.7-.5s.2-1.1.8-.2c.4.7 5.3 1.3 12.7 1.7 6.6.3 12 .6 12 .7 0 0 1.6.2 3.5.3 1.9.2 5.2.6 7.2 1s6.2.9 9.4 1.2c3.2.2 6.3.9 7 1.5.8.7 1.4.6 1.7-.3.4-1.1.6-1 .6 0 .1.7.5 1.1 1 .8.5-.3 2.7.1 5 .9s6 1.5 8.4 1.6c2.3.2 5.8.7 7.7 1.4 1.9.6 4 1.1 4.5 1.1 2.8 0 8.5 1.7 8.5 2.5 0 .5.7.6 1.5.3.8-.4 1.5-.1 1.5.6 0 .6.4.8 1 .5.5-.3 3.4.1 6.5 1 3 .9 6 1.3 6.6.9.8-.5.9-.3.4.6-.6 1-.3 1.2 1.4.7 1.2-.3 3.6.2 5.3 1 1.7.9 4.3 1.6 5.9 1.7 1.5.1 2.5.4 2.3.7-.5.9 8.6 3.4 10.9 3.1.9-.2 1.7.2 1.7.7 0 .6.3 1 .8.9.4 0 1.4.1 2.2.4 3.4 1.2 10.6 3.3 12 3.4.8.1 2.2.4 3 .7.8.4 4 1.3 7 2.1 9.8 2.6 13.5 3.8 14.5 4.6 1.5 1.1 13.6 5 15.6 5 1 0 1.9.4 2.1.8.6 1.7 8.1 6 9.4 5.5.7-.2 1.9.5 2.6 1.6.7 1.2 1.7 2.1 2.3 2.1.5.1 3 2.8 5.4 6 2.5 3.3 4.8 6 5.3 6 .4 0 1.4 1.3 2.3 3 1.1 2.1 2 2.7 3.2 2.3.9-.4 1.4-.2 1 .4-.3.5.1 2.2.9 3.7.7 1.6 1.4 3.7 1.4 4.7 0 1.1.8 2.7 1.8 3.7 1.6 1.6 5.1 9.7 7.3 17 .6 1.8 1.3 3.1 1.7 2.8.4-.2.8.7.8 2 .1 1.3.9 3 1.8 3.9.8.9 1.8 3.1 2.2 5 .3 1.8 1.3 3.6 2.1 3.9.8.3 1.1 1.1.8 1.6-.4.6-.2 1.7.4 2.4.6.7 1.2 2.1 1.4 3.2.2 1 .9 3.1 1.5 4.6.6 1.5.9 4.7.6 7-1.1 8.4-.6 21.4 1.1 27.3.9 3.5 1.7 11.3 2 19 .2 7.1.9 16.4 1.5 20.5 1 7.1 2.3 25.1 2.2 31.5 0 1.6-.5 18.1-1.2 36.5-.6 18.4-1.2 46.8-1.3 63-.3 29.2-.3 29.8-4.5 56.5-2.3 14.8-4.2 27.4-4.2 28 .1 3.2 3.1-6.7 14.5-48.5 14.2-52.3 12.5-48.4 26.1-58.5 8.2-6.2 10.3-10 13.5-24.8 1.1-5.1 3.1-10.8 4.4-12.8 3.5-5.4 10.7-24.6 10-26.8-.3-1 .3-3.3 1.4-5.2 3.1-5.4 6.1-19.4 7.2-33.4 1.1-14.2 2.4-19.9 7.4-32 3-7.3 5-13.6 9.1-28.5 1.8-6.6 2.7-40 1.4-53-.5-4.7-1.3-14.6-1.9-22.1-.6-7.4-2-17.1-3.1-21.5-1.7-7-10.4-28.2-14.5-35.6-.8-1.4-1.5-3.3-1.5-4.2 0-.9-3.4-8.3-7.7-16.4-4.2-8.1-10.4-20.2-13.8-27-3.4-6.7-6.9-13-7.8-14-.8-.9-4.1-6.1-7.2-11.6-3.1-5.4-8-12.9-10.8-16.5-2.8-3.6-7.4-9.5-10.1-13.1-2.7-3.6-6.9-8.7-9.3-11.4-2.4-2.7-6.9-9-10-14-3.1-5-8-12.3-10.9-16.1-5.4-7.3-22.4-26-25.7-28.4-3.5-2.5-13.6-16.1-14.6-19.6-.5-2-4.9-8.2-10.2-14.5-7.4-8.8-10.5-11.7-15.6-14.5-3.5-1.9-6.9-3.5-7.6-3.5-.7 0-3.8-2.1-6.8-4.8-8.1-7.1-12-9.3-28.1-15.6-8.1-3.2-15.9-6.6-17.2-7.7-7.9-6.2-35.1-16.4-60.1-22.4-8.2-2-23.3-6-33.5-8.9-29.8-8.7-28.5-8.4-58.5-10.5-8.8-.7-17.3-1.6-19-2-5.6-1.7-13-1.9-18.9-.6z"/><path d="M884 772c-26.6 1.6-40.6 5.5-63 17.3-19.7 10.4-35.3 22.1-41.8 31.5-2.6 3.7-13.2 24-13.2 25.3 0 .5 5.1-2.4 11.3-6.4 14.7-9.6 25-15.4 37.2-20.9 13.1-6 18.4-7.6 28.6-8.8 19.6-2.3 26.4-1.3 64.4 9 16.6 4.5 20.1 5.1 28.2 5 8.9 0 21.6-2 25.1-3.9 2.8-1.5 5.2-4.6 6.2-8.1 1.2-4-2.2-14.9-6.7-21.3-10.7-15.5-33.9-21.2-76.3-18.7zM1125.5 772.1c-6.5.9-16.6 4.3-20.3 6.7-4.2 2.7-5.2 6.3-5.3 18.4-.1 8.6.3 12.3 1.6 15.5 2.2 5.4 7.2 9.9 12.7 11.4 5 1.3 18.2.6 27.3-1.4 27.3-6.2 27.4-6.2 41.5-4.9 15.3 1.4 43.5 8.1 49 11.7 1.9 1.2 6.4 4.8 10 8 8.9 8.1 14.6 11.5 19 11.5 6.4 0 7.2-2.5 4.1-11.6-5.2-14.6-23.2-32-49.1-47.2-12.4-7.3-37.7-16.8-48.5-18.2-9.3-1.2-33.4-1.1-42 .1zM860.5 859c-8.6 1.6-20.9 7.5-31.1 15.1-3 2.2-7.5 4.8-9.9 5.7-2.5.9-4.5 2-4.5 2.4 0 1 6.7 2.1 9.2 1.5 1.4-.4 3.1.2 4.9 1.8 1.6 1.3 5.2 3.1 8.1 4 2.9 1 7.2 2.6 9.5 3.6 7.6 3.4 30.4 5.8 45.3 4.7 26.9-1.8 44.5-4.3 52.7-7.4 11.4-4.3 12-6 3.6-10.4-3.2-1.6-8.6-4.8-12.1-6.9-16.3-10.2-56.5-17.7-75.7-14.1zm2.5 5.4c0 .2-.7 2-1.5 3.9-3.1 7.5-1.4 17.2 4.2 23.7 3.4 4 3.4 4 1 4-4.8 0-13.3-2-21.7-5.2-4.7-1.7-8.7-3.3-8.9-3.5-1.1-.8 0-6.8 1.6-8.5 4.6-5.2 25.3-16.9 25.3-14.4zm58.6 7.9c6.1 2 27.2 13.4 27.3 14.7.2 1.9-25.5 6.9-43.7 8.4l-6.3.6 3.4-4c4.3-5 6.1-11.4 5.4-18.4l-.5-5.3 3.6.8c2.1.5 6.9 1.9 10.8 3.2zm-35.6 3.2c0 .8-.4 1.5-1 1.5-.5 0-1-.7-1-1.5s.5-1.5 1-1.5c.6 0 1 .7 1 1.5zM1137.5 871c-8 1.1-32.3 9.8-40.2 14.3-7.5 4.2-9.5 7.3-5.3 8.4 1.1.3 2 .9 2 1.3 0 1.2 13.7 7.6 21.5 10.1 5.9 1.9 8.1 2 28.7 1.6 12.3-.3 25.2-.9 28.8-1.5 7.8-1.1 27.6-6.8 30.8-8.8 1.2-.8 3.2-1.4 4.5-1.3 7.5.7 8.8-1 2.5-3.5-2.4-.8-9-4.3-14.8-7.6-13.9-7.9-18.9-9.7-33.9-12-13.2-2.1-16.3-2.2-24.6-1zm45 11.2c2.2 1.1 7.3 4.1 11.3 6.5 6.7 4.2 8.5 6.4 6.3 7.8-2.4 1.4-21.2 6.7-25.9 7.2l-5.2.6 2.7-4.9c2.4-4.2 2.8-6 2.8-12.6 0-8.7-.2-8.6 8-4.6zm-59.3 6.1c.6 6.5 2.5 11.5 6.2 15.5l2.1 2.4-6-.7c-6.7-.8-16-3.8-24.7-8-5.8-2.8-6.9-3.8-4.5-4.8.6-.3 6.4-2.8 12.7-5.6 6.3-2.8 12-5.1 12.6-5.1.7 0 1.3 2.6 1.6 6.3zM715 1025.8c0 2.4 3.3 18.3 4.9 23.7 3.1 10.1 3.5 15.6 1.6 24.3-1.7 7.7-1.7 7.9 1 22.8 7.7 42 20.8 83.1 36 113l6.3 12.3 3.6 51.8c2 28.5 4.3 60.3 5.1 70.8.8 10.4 1.9 26.9 2.6 36.5 1 15 1.6 18.7 4.1 25.6 6.4 17.9 25.9 46.2 45.8 66.6 3 3.1 6.8 7.3 8.3 9.2 1.6 2 3.3 3.3 3.9 3 .6-.4.8-.3.5.3-.4.5.7 2.2 2.2 3.7 1.8 1.8 3.1 2.4 3.5 1.7.4-.6 1.2-1.1 1.9-1.1.6 0 .3.6-.7 1.3-1.5 1.1-1.1 1.8 4.7 7.5 3.6 3.4 6.9 6.2 7.4 6.2.4 0 1.4.9 2.1 2.1 1.1 1.7 1.6 1.9 2.9.7 1.3-1 1.5-1 .9 0-1.1 1.8 2 6.3 3.9 5.6.8-.4 1.5-1.4 1.5-2.3-.1-1.4-.3-1.3-1.5.3-1.3 1.7-1.5 1.7-2 .3-.4-.8 0-2.8.8-4.4 1.4-2.6 1.6-2.7 2.3-.8.4 1.1 1.4 2.8 2.1 3.7.9 1 1.2 2.2.7 3-.6 1-.4 1 .9-.1 2.2-1.8 2.4-9.6.3-8.8-1 .4-1.3.1-.9-.9.3-.8-.6-2.5-2.1-3.9-2.1-1.9-2.6-3.3-2.6-7 0-3.3-.4-4.5-1.5-4.5-.8 0-1.5-.9-1.5-2 0-1.7.7-2 3.9-2 3.1 0 4.1.4 4.6 2 .3 1.1 1 2 1.6 2 .5 0 1.2 1.8 1.5 4 .5 3 1.1 4 2.5 4s1.9 1 2.2 4.2c.3 4.1.4 4.1.5-.9.1-3.6-.2-5.2-1-5-.6.1-1.6-1.2-2.2-2.8-.6-1.7-1.8-3.7-2.8-4.6-1.3-1.2-1.6-2.5-1.2-5.1.4-2.1.2-3.8-.5-4.2-.6-.4-1.1-1.5-1.1-2.4 0-1.9-3.8-9.9-5.7-12-1.3-1.3-.7-4.2.7-4.2.5 0 1.2.5 1.5 1 .5.8 1.1.7 2.1-.1 1.1-.9 1.4-.8 1.4.4 0 .8 1 1.7 2.3 2 1.2.2 3 .8 4 1.2 1.2.5 1.7.2 1.7-1 0-1-.8-2.4-1.7-3.1-1.7-1.3-1.7-1.3 0-1.4.9 0 1.7-.5 1.7-1 0-.6 1.4-1 3-1 3.4 0 4.9-2.2 3.1-4.4-2.1-2.6-6.1-10.8-5.6-11.6 1.1-1.7 5.7-2 8.8-.5 2.4 1.2 3.3 1.3 4.1.3.6-.7.7-.9.2-.5-1.1.9-3.5-2.2-3.6-4.7 0-1.1-.5-1.6-1.3-1.3-1 .4-1.3-.2-.9-1.9.3-1.6-.3-3.2-1.9-4.8-2.5-2.5-3.3-5.3-1.8-6.2.5-.3-.1-1.4-1.3-2.4l-2.3-1.9 2.2-.1c1.2 0 2.4.4 2.7.9.3.5 2.3 1.2 4.3 1.6 2.1.4 4.3 1 4.8 1.5.6.4 3.2 1 5.9 1.4 2.8.3 5.4 1.2 5.9 1.9s.6-.1.3-2.3c-.4-1.9-1.2-4-1.9-4.5-.8-.6-1.6-3.3-2-6.1l-.6-5.1 3.7 1.3c2 .7 6 1.3 8.8 1.4 3.7 0 5.4.4 5.8 1.5.3.8 1.2 1.5 1.9 1.5.8 0 2-.7 2.7-1.5 1-1.3.9-1.5-.9-1.5-1.2 0-1.9-.4-1.6-1 .3-.6-.1-1.3-1-1.6-1.3-.6-1.4-.8-.3-1.5 1-.7 1-.9.1-.9-.7 0-1.3-.7-1.3-1.5s-.5-1.5-1.1-1.5c-.5 0-.8-.4-.5-.8.3-.5 2.9-.5 5.8-.1 9.8 1.4 9.8 1.4 9.8-2.9 0-3.2.5-4.1 2.8-5.2 2.2-1.1 2.4-1.4.9-1.7-.9-.3-1.5-.9-1.2-1.4 1-1.5 4.7-1 6.1.8.9 1.3 1.3 1.4 1.4.4 0-1 1.6-1.2 8-.6 6.9.6 8 .5 8-.8 0-1.1-1.2-1.7-4.2-2l-4.3-.4 4.7-.1c2.6-.1 5 .2 5.3.8.8 1.2 3.5 1.3 3.5.1 0-.5-1.1-1.2-2.5-1.5-1.4-.4-2.5-1.1-2.5-1.7 0-.6.6-.6 1.9.1 1.1.5 3 1 4.3.9 1.6 0 1.9-.2.8-.7-.8-.4-1.6-1.2-1.7-1.9-.3-1.5 5.1-2.7 7.4-1.5 1.8.9 29.2.6 30.1-.3.3-.3-2-.5-5.1-.5-6.6 0-7.7-1.7-1.4-2.3l4.2-.4-4.2-.1c-2.4-.1-4.3-.7-4.3-1.3 0-.8 1.7-1 5-.7l5 .5-.6-3.3c-.5-3-.4-3.4 1.5-3.4 1.1 0 2.1.4 2.1.9 0 .6.8.8 1.8.6.9-.1 5.2-.6 9.5-1 4.2-.4 7.7-1.1 7.7-1.6s-5.4-.9-11.9-.9c-10.1 0-12-.2-12.5-1.6-.6-1.6.8-1.6 15.9-1.2 15.7.6 16.5.5 16.5-1.3 0-2.3 2.8-2.6 3.6-.4.8 1.9 4.4 2 4.4 0 0-1.2 1.7-1.4 9.2-1.2 6.6.1 9.2-.1 9.5-1.1.3-.6 1.8-1.2 3.3-1.2 4.1 0 4.9-2 .8-2.1-3.1-.1-3.1-.2-.8-.8 1.4-.5 2.9-.4 3.5.1.5.4 1.7.8 2.8.8 1.3 0 1.7-.5 1.2-1.9-.7-2.3 1-3.7 5.8-4.5 2.2-.4 3.7-1.3 3.7-2.1 0-.9.6-1.2 1.7-.8 1.3.5 1.5.2 1.1-1.5-.5-1.9-.1-2.2 4.1-2.8 5.7-.8 10.1-3 10.1-4.9 0-.8.4-1.5 1-1.5.5 0 .7.7.4 1.5-.7 1.8.7 2 2.4.3.7-.7 2.8-1.3 4.8-1.5 4.3-.2 6.7-2 6.1-4.5-.3-1.1 0-1.8 1-1.8s1.2-.6.8-2c-.3-1.1-.2-2 .3-2 .8 0 2.3-1.1 6.9-5 .7-.5 2.1-1 3.1-1 1.5 0 1.9-.7 1.8-3.3-.1-1.7-.5-3.5-1.1-3.9-.5-.4.2-.8 1.8-.8 1.9 0 2.7-.5 2.7-1.8 0-1.1 1.2-2.4 2.8-3.2 1.5-.7 2.2-1.5 1.5-1.7-.8-.3-.5-1.1.8-2.4 2.2-2.2 3.7-2.6 2-.5-1.4 1.7 0 2.9 2.4 2 1-.4 2.1-.1 2.6.7.7 1.1.9 1.1.9.1 0-1.5 5.7-7.2 7.1-7.2.5 0 .9-.4.9-.9s-1.1-.9-2.5-.9-2.5.4-2.5.9-.6.9-1.2.9c-.7 0-.1-1.1 1.4-2.5s3-3.6 3.3-4.8c.4-1.4 2.1-2.9 4.7-4 3.6-1.6 4.3-1.6 6.3-.3 2.1 1.4 2.3 1.4 1.8-.4-.3-1-1.2-2.1-2.2-2.4-1.1-.3-1-.4.4-.3 1.1.1 3.1-.6 4.5-1.6 1.3-.9 1.8-1.7 1.1-1.7-1.1 0-1.1-.3-.1-1.5.7-.8 1.8-1.5 2.4-1.4.7 0 .6.2-.2.6-.6.2-1 .9-.6 1.4.3.5 1 .7 1.5.4 1.4-1 1.1-3.7-.8-5-1.7-1.3-.9-4 .9-2.9.7.4.8.2.4-.4-.4-.6-1.4-.8-2.4-.5-1.5.6-1.5.5-.3-1 .8-1 1.6-1.5 1.9-1.2.3.3 1.1-.4 1.9-1.5 1.5-2.2 3.9-2.8 2.7-.8-.5.9-.2.8 1-.1.9-.8 1.5-2 1.2-2.7-.3-.7-.1-1.6.4-1.9.6-.4 1-.2 1 .3 0 1.4 3.7.3 5.1-1.4 1.1-1.4.1-2-2.5-1.5-.5.1-.4-.5.4-1.3 1.4-1.8 2.5-2.2 1.5-.6-.3.5-.1 1 .4 1 .6 0 1.1-.8 1.1-1.8 0-1.8 7.5-9.2 9.3-9.2.4 0 .6-.4.3-.8-.7-1.1 5-7.9 5.9-7 .4.3-.3 1.1-1.4 1.8-1.2.6-2.1 1.6-2.1 2.2 0 .6.6.5 1.7-.3 1.5-1.2 1.6-1.2 1 .6-.7 1.9-.6 1.9.7.2.8-1 1.2-3 1-4.4-.3-1.7-.1-2.2.7-1.7.8.5 1 .2.6-.8-.6-1.8 2.5-5.2 3.7-4.1.4.5.6.1.4-.7-.2-.9.3-1.4 1.4-1.2.9.1 1.9-.2 2.3-.8.3-.6 0-.7-.9-.4-2.4.9-1.9-.7 1.5-4.6 1.7-1.9 2.7-2.9 2.3-2.1-.5.9-.3 1.2.5.7.6-.4 1-1.3.9-1.9-.2-.7 2.2-4.8 5.3-9.2 7.3-10.3 14.8-22.2 15.2-23.7.1-.7 1-2.1 2-3.2.9-1.1 1.7-2.5 1.7-3 0-.6-.4-.5-.9.3-.5.7-1.4 1-2 .7-.6-.4-1.1 0-1.1.9s-.4 1.4-.9 1c-.5-.3-1.2-.1-1.5.4-.4.5-.2 1.2.4 1.6 1.6 1 .1 2.5-1.7 1.8-1.1-.4-1.4-.2-.9.5.3.6-.2 1.6-1.3 2.1-1.4.8-2 .7-2.5-.4-.7-1.9-2.6-1.9-2.6 0 0 .8-.9 1.5-2.1 1.5-1.6 0-1.9.4-1.4 2.2.5 1.8.4 2-.4.8-1-1.3-1.1-1.3-1.1 0s-.1 1.3-1 0c-.8-1.3-1.2-1.2-2.5.8-.9 1.2-2.1 2-2.6 1.7-.5-.4-.9.1-.9.9s-1.3 2.3-3 3.3c-1.6.9-3 2.1-3 2.5 0 .4-.7.8-1.5.8s-1.5.6-1.5 1.2c-.1.7-.9.3-1.9-.9l-1.9-2.3-.6 2.6c-.4 1.5-1.4 3.4-2.3 4.3-1.6 1.5-1.6 1.5-1-.2.6-1.6.3-1.8-2.4-1.2-2.4.6-3 .4-2.4-.5.5-.9.4-1.1-.3-.6-1.6.9-1.5 3.3 0 3.8.7.3.3.7-.9 1-1.6.4-2 .2-1.6-.8.8-2.2-1-1.6-3.3 1.1-1.8 2.2-2.4 2.3-3.5 1.2-.8-.7-2.3-1.6-3.3-2-1.6-.6-1.7-.5-.6.8s1 1.4-.4.9c-2.3-.9-5.2 1.6-3.4 2.8.9.7.6.8-1 .5-1.8-.4-2.2-.2-1.8.9.4.9-.1 1.4-1.5 1.4-1.1 0-1.7.4-1.4 1 .3.6-.1.7-.9.4-.9-.3-1.6-1.4-1.7-2.3 0-1.3-.2-1.3-.6-.1-.8 2-2.9 4-4.2 4-.6 0-1.1.4-1.1 1 0 .5-.5 1-1.1 1-.5 0-.7-.5-.4-1 .9-1.4-.4-1.2-2 .2-3.3 3-4.5 3.8-5.4 3.8-.5 0-1.2-.6-1.4-1.3-.3-.6-.6 0-.6 1.5-.1 3.5-1.8 3.6-2.7.3-.6-2.5-3.6-3.7-3.1-1.3.1.8-1 1.4-2.5 1.6-3.1.4-3.7-1.2-1.2-2.6 1.1-.6 1.3-1.1.5-1.6-.6-.4-2.1.2-3.3 1.4-1.2 1.1-2.8 1.8-3.6 1.5-.7-.2-1 0-.7.5.3.6-.1 1.3-.9 1.6-.9.3-1.4 1-1.1 1.4.3.4-.2 1-1 1.4-1 .3-1.5-.1-1.6-1.2 0-.9-.3-1.2-.5-.6-.3.7-1.5 1-2.7.7-1.6-.3-1.8-.2-.9.5 1.1.7.8 1.1-1 1.5-1.2.4-2.4.2-2.6-.3-.2-.5-1.3-.1-2.5 1-1.1 1.1-2.9 2-3.9 2-1.1 0-3.3.7-4.9 1.6-1.7.8-3.8 1.3-4.7 1.1-1.4-.3-1.2-.6.8-1.5 2.4-1 2.4-1.1.3-1.1-1.2-.1-2.5.3-2.8.9-.3.5-1.5 1-2.6 1-1 0-1.9.5-1.9 1.1 0 .6.7.9 1.5.5.8-.3 1.5-.2 1.5.3s-2.9 1.5-6.5 2.2c-4.7.9-6.5 1.7-6.5 2.8 0 1.4-.1 1.4-1 .1-.6-.9-1.3-1.1-1.7-.5-.5.5-1.2 1-1.8 1.1-2.9.1-6.5 1.8-6.5 3 0 1.4-1.7 1.9-5.2 1.6-1-.1-1.8.3-1.8.8 0 .6-2 1-4.4 1-2.6 0-4.6.5-4.8 1.2-.3.8-1.9 1.2-4.1 1-2.4-.2-3.7.1-3.7.9s-.7.6-2-.6c-1.1-1-2-1.4-2-.9 0 .5-.7.1-1.4-.9-1.3-1.7-4.6-1.4-4.6.4 0 .5-1.3.9-3 .9-1.6 0-3-.3-3-.8 0-1.4-4.9-1-5.4.5-.4.8-1.3 1.3-2 1-.8-.3-1.6-.1-1.9.6-.5 1.6-12.9 1.9-13.9.4-.5-.8-.8-.6-.8.5 0 2.1-3 2.4-4.8.6-.9-.9-1.2-.8-1.2.5 0 .9-.7 1.7-1.5 1.7s-1.5-.4-1.5-.8-1.2-.7-2.7-.6c-1.6 0-5.2.2-8.1.2-3.3.1-5.1.6-4.7 1.2.3.6-.4 1-1.7.9-1.3 0-1.8-.3-1.1-.5.7-.3.9-1.2.6-2-.5-1.3-.7-1.3-1.4-.2s-1.1 1-1.9-.2c-.7-1.1-1-1.1-1-.2 0 .7-.5 1-1.2.6-.6-.4-2.7-.8-4.7-1-2-.1-3.9-.3-4.3-.3-.4-.1-1-1-1.3-2.1-.4-1.2-1.4-2-2.3-1.8-.9.1-2.7-.4-4-1.1-2.6-1.4-8.2-.6-8.2 1.2 0 .7-.5.5-1-.4-.7-1.3-2.2-1.6-6.6-1.3-3.3.2-6.1.9-6.5 1.6-.6 1-.9 1-.9.1 0-.7-1.7-1.7-3.7-2.3-5.1-1.4-7.9-3.3-3.8-2.5 1.7.3 2.4.2 1.7-.1-.6-.3-.9-1.1-.6-1.6.4-.7.2-.8-.4-.4-.7.4-1.2.1-1.2-.6 0-.8-1.9-2.1-4.2-3-2.8-1-4.3-2.1-4.2-3.2.2-1.9-1.2-2.2-2-.4-.3.9-.8.8-1.6-.5-.8-1.2-2.1-1.7-3.8-1.5-2.1.2-2.7-.1-2.7-1.7 0-1.4-.8-2.1-2.7-2.3-2-.2-2.8-.9-2.8-2.3 0-1.3-.4-1.8-1.2-1.3-2.6 1.6-5 1.1-5.9-1.3-.5-1.2-1.1-2.3-1.5-2.3-.3 0-.4.7 0 1.5.3.8.1 1.5-.4 1.5-.6 0-1-.7-1-1.5 0-.9-.6-1.8-1.4-2.1-.8-.3-1.2-1.2-.9-2 .3-.9-.2-1.4-1.7-1.4-2 0-2.1-.2-.9-1.7 1.2-1.5 1.2-1.6-.3-1-1 .3-2 .2-2.3-.3-.3-.5-1.9-.7-3.5-.3-2.3.4-3 .2-3-1 0-1-.6-1.4-1.4-1.1-.8.3-1.9-.3-2.5-1.3-.5-1.1-2.8-2.8-5.1-3.8-2.2-1-3.6-2.1-3-2.5 1.4-.8-2.8-5.3-4.4-4.7-.7.3-2.1-.9-3.1-2.5-1-1.7-1.3-2.8-.7-2.4.6.3 1.4.1 1.7-.4.5-.8-.4-.9-2.9-.5-3.4.7-3.6.6-3.6-1.9 0-2.8.9-3.3 2.8-1.4 1.5 1.5 4.2 1.9 4.2.6 0-.6-.7-.8-1.5-.4-.9.3-2-.2-2.7-1.3-1.4-2.3-3.8-1.6-3.8 1.1 0 1-.4 1.6-1 1.3-.5-.3-1-1.7-1-3 0-1.8-.4-2.3-1.5-1.9-.9.4-1.8-.1-2.2-1.2-.4-1-1.8-2.9-3.1-4.1-2-1.8-2.1-2.3-.8-2.3.9 0 1.6-.5 1.6-1 0-.7-.6-.7-1.9 0-1.1.5-2.4 1-3 1-1.5 0-1.4-6.3.1-7.8.9-.9.9-1.2 0-1.2-.7 0-1.2.4-1.2 1 0 .5-.4 1-1 1-.5 0-1-.8-1-1.8s-.6-2.7-1.4-3.7c-.7-1-1.1-2.8-.9-3.9.4-1.7.3-1.8-.6-.6-.9 1.2-1.1 1.1-1.2-1-.1-1.7-.3-1.9-.6-.8-.3 1.4-.7 1.5-1.7.5-.8-.6-1.1-1.8-.9-2.5.4-.8 0-1-1.1-.6-1.2.4-1.6 0-1.6-1.5 0-1.1-.9-2.5-2-3.1-1.7-.9-2-.8-2 1 0 1.1-.4 2-1 2-.5 0-1-.5-1-1.1 0-.6-.9-.8-2.2-.4-2.2.5-2.1.5.2-1 2.4-1.6 2.4-1.6.3-1.2-3.1.7-5.3-2.8-2.8-4.5.6-.5.3-.8-.8-.8-1 0-2.1 1-2.6 2.2-.6 1.6-.8.6-.8-3.6 0-3.2-.5-6.1-1-6.5-.6-.3-.9-1.9-.7-3.5.2-2.1-.2-2.9-1.7-3.3-2.3-.6-2.6-2.3-.3-2.3.8 0 1.2-.5.9-1.1-.4-.5-1.2-.8-1.8-.6-1.5.5-4.9-3.2-4.1-4.5.4-.7.3-.8-.5-.4-2 1.3-6.4-.3-5.7-1.9.3-.8.1-1.5-.4-1.5-.6 0-1-.9-1-2.1 0-1.1.5-1.7 1-1.4.6.4 1-.5 1-1.9 0-1.7-.6-2.6-1.6-2.6s-1.3-.6-1-1.8c.7-2.2-.2-3.4-3.6-4.9-1.6-.7-2.8-1.9-2.8-2.7 0-.8-1-2.2-2.2-3-1.2-.9-1.8-1.6-1.3-1.6s.1-.6-1-1.3c-1-.8-1.5-1.9-1.2-2.4.4-.6-.1-1-1-.9-1 0-2.3-1.1-3.1-2.7-.7-1.5-1.9-2.7-2.6-2.7-1.5 0-5.6-4.2-5.6-5.8 0-.7-.7-1.2-1.5-1.2s-1.5-.5-1.5-1c0-.6.7-1 1.5-1 1.8 0 1.9-.4.3-3.3-2.4-4.2-6.8-5.3-6.8-1.7 0 1.8-.2 1.9-2 .8-2.6-1.6-2.5-2.8.1-2.8 1.5 0 2-.5 1.7-2.3-.2-1.5-.9-2.1-2.2-1.9-1.4.3-1.7-.1-1.3-1.2.4-1 .1-1.6-.8-1.6-.8 0-1.7-1.1-2.1-2.5-.7-2.7-1.9-3.3-2.7-1.3-.4.8-.6.7-.6-.3-.1-2.6-2.6-4.2-4-2.6-.6.8-.8 1.7-.4 2.1.4.4 0 .4-1 .1-1.2-.5-1.4-1.1-.7-2.5.8-1.4.5-1.6-1.4-1.3-1.3.3-2.7 0-3.1-.6-.3-.6-.3-1.1.2-1 2 .3 3-.2 3-1.6 0-1.8-2.3-2-3-.3-.3.8-.6.7-.6-.4-.1-.9-.6-2-1.2-2.4-.8-.4-.9 0-.4 1.5.4 1.3.2 2.1-.5 2.1-.6 0-.9-.4-.6-.9.4-.5.1-1.1-.6-1.3-.7-.3-1.3-2.3-1.3-4.9-.2-4.8-2.6-10.3-5-11.2-.8-.4-1.5-1.4-1.5-2.2 0-1.1-.6-1.5-1.8-1.1-1.2.4-2-.1-2.7-1.7-.6-1.2-2-2.3-3.2-2.5-1.3-.2-2.6-1.4-3.2-3-.6-1.8-1-2.1-1-.9-.1 1-.6 1.5-1.2 1.2-.6-.4-.8-1.4-.4-2.3.3-.9.3-1.3-.1-.9s-1.3.2-2.1-.4c-.8-.7-1.3-.8-1.3-.1zm37.5 41.1c.3.5.1 1.2-.5 1.6-.5.3-1-.1-1-.9 0-1.8.6-2.1 1.5-.7zm5.5 6.2c0 1.4-1.7 1-2.3-.5-.4-1-.1-1.3.9-.9.7.3 1.4.9 1.4 1.4zm37.3 47.6c-.3.7-.6 1.3-.8 1.3-.2 0-.5-.6-.8-1.3-.3-.8.1-1.4.8-1.4.7 0 1.1.6.8 1.4zm377.2 95.2c.3.5.1 1.2-.4 1.5-.5.3-1.1-.1-1.5-.9-.6-1.6.9-2.1 1.9-.6zM883 1223c-.8.5-1.9 1-2.5 1-.5 0-.3-.5.5-1s2-1 2.5-1c.6 0 .3.5-.5 1zm4.5 0c.3.5-.1 1-1 1s-1.3-.5-1-1c.3-.6.8-1 1-1 .2 0 .7.4 1 1zm224.5 16c0 .5-.5 1-1.1 1-.5 0-.7-.5-.4-1 .3-.6.8-1 1.1-1 .2 0 .4.4.4 1zm-82 16c1.3.8 1.3 1-.2 1-.9 0-2-.5-2.3-1-.8-1.3.5-1.3 2.5 0zm-54 4.4c0 .8-6.1 1.2-6.6.4-.3-.4 1.1-.8 3-.8 2 0 3.6.2 3.6.4zm17 .4c0 .4-1.1.9-2.5 1-1.4.1-2.5-.3-2.5-.8 0-.6 1.1-1 2.5-1s2.5.4 2.5.8zm151.9 33.5c-.2.1-1.3.9-2.4 1.7-1.9 1.4-1.9 1.4-.6-.3.7-.9 1.8-1.7 2.4-1.7.6 0 .8.1.6.3zm-8.5 1.9c-.3.5-1 .6-1.5.3-.5-.4-.9-.1-.9.6s-.3 1-.6.6c-.9-.9.3-2.4 2-2.4.8 0 1.3.4 1 .9zm-6.7 4.3c0 .8-.4 1.2-.9.9-.5-.3-.6-1-.3-1.5.9-1.3 1.2-1.1 1.2.6zm8.3-1.1c0 .3-.4.8-1 1.1-.5.3-1 .1-1-.4 0-.6.5-1.1 1-1.1.6 0 1 .2 1 .4zm-6 4c0 .2-.7.7-1.6 1-.8.3-1.2.2-.9-.4.6-1 2.5-1.4 2.5-.6zm-25.5 29.5c-.3.6-1.1 1.1-1.6 1.1s-.4-.6.3-1.4c1.4-1.6 2.4-1.3 1.3.3zm-51.2 27.8c-.7.2-2.1.2-3 0-1-.3-.4-.5 1.2-.5 1.7 0 2.4.2 1.8.5zM987 1377c0 .5-.4 1-1 1-.5 0-1-.5-1-1 0-.6.5-1 1-1 .6 0 1 .4 1 1zm4 0c0 .5-.4 1-1 1-.5 0-1-.5-1-1 0-.6.5-1 1-1 .6 0 1 .4 1 1zm-108.7 59.3c2.1-.4 2.2-.4.3 1.1-1.1.9-2.3 1.6-2.7 1.6-1.3 0-2.1-1.9-1.3-3.2.5-.8.9-.9 1.1-.1.2.6 1.4.9 2.6.6zm-26.9 62.5c.3.5-.1.9-.9.9s-1.2-.4-.9-.9c.3-.4.7-.8.9-.8.2 0 .6.4.9.8zm7.1 7.3c-.4.5-1.2.9-1.8.8-.9 0-.8-.2.1-.6.6-.2.9-1 .6-1.5-.4-.7-.2-.8.5-.4.6.4.9 1.2.6 1.7z"/><path d="M937 1037.6c-1.4.3-9 1.8-17 3.4-8 1.5-21 3.6-29 4.5-31.5 3.5-46.6 6.7-53.2 11-5.8 3.9-13.5 14.8-16.1 22.9-3.2 10.3-3.1 28.8.2 36.2 2.6 5.9 6.4 10 10.2 10.9 2.5.6 2.6.4 3.1-3.9.3-2.6 2-7.1 3.9-10.3 4.3-7.4 23.7-26.8 31.1-31.1 8.4-5 29.3-13.2 37.6-14.8 13.5-2.6 39.6-1.3 83.2 4.2 18.5 2.3 22.5 2.5 41.5 2 41.3-1.3 38.6-1.6 57 6.5 6.3 2.7 13.8 5.3 17.5 5.8 43.2 6.7 52.8 11.5 59.9 30 1.8 4.6 4.3 10 5.7 12l2.4 3.8 5.6-.8c13.1-1.8 20.4-10.7 20.4-24.9 0-12.4-4.6-24.7-11.7-31.1-4-3.7-6.4-4.5-28.6-9.8-7.1-1.7-21.2-6.3-31.5-10.2-32.3-12.3-34.5-12.9-44.3-12.9-4.8 0-12.1.6-16.1 1.4-8.9 1.7-28.2 7.3-31.9 9.2-3.3 1.7-14.7 4.1-23.6 4.9-12 1.2-20.7-.7-34-7.4-19.8-9.8-32.5-13.3-42.3-11.5zM750.2 1055.9c-1 .6-1 1 .3 2.1s1.5.9 1.5-.9c0-2.4 0-2.4-1.8-1.2zM800 1122.1c0 .5.5.7 1 .4.6-.3 1-.8 1-1.1 0-.2-.4-.4-1-.4-.5 0-1 .5-1 1.1zM819.4 1152.8c.3.5 0 1.3-.6 1.5-.9.4-1 .6-.1.6 1.7.1 2.5-1.6 1.2-2.5-.7-.4-.9-.3-.5.4zM854.6 1187.5c-.9 2.6-.7 3.2.5 1.2.6-1 .9-2.1.6-2.3-.2-.3-.7.2-1.1 1.1zM877.8 1212.7c.7.3 1.6.2 1.9-.1.4-.3-.2-.6-1.3-.5-1.1 0-1.4.3-.6.6zM921.6 1238.5c.4.8.8 1.5 1 1.5.2 0 .4-.7.4-1.5s-.4-1.5-1-1.5c-.5 0-.7.7-.4 1.5zM1085.5 1241c.3.5 1.1 1 1.6 1 .6 0 .7-.5.4-1-.3-.6-1.1-1-1.6-1-.6 0-.7.4-.4 1zM1191.6 1244.9c-.4.5-.2 1.2.3 1.5.5.4 1.2.2 1.5-.3.4-.5.2-1.2-.3-1.5-.5-.4-1.2-.2-1.5.3zM967 1254c0 .5.5 1 1.1 1 .5 0 .7-.5.4-1-.3-.6-.8-1-1.1-1-.2 0-.4.4-.4 1zM1169.7 1269.1c.7.7 1.5 1 1.8.7.3-.3-.2-.9-1.2-1.2-1.4-.6-1.5-.5-.6.5zM1170.8 1271.7c.6.2 1.8.2 2.5 0 .6-.3.1-.5-1.3-.5-1.4 0-1.9.2-1.2.5zM1153.8 1292.1c-1 1.7-1.8 3.5-1.8 4.1 0 .6.8.4 1.8-.5.9-.8 2.9-1.9 4.5-2.2 1.5-.4 2.7-1.1 2.7-1.7 0-.5-.4-.6-1-.3-.5.3-1.5.3-2.2-.1-.8-.5-.6-1 .8-1.5 1.7-.7 1.6-.8-.6-.8-1.8-.1-3 .8-4.2 3zM1134 1309c-.9.6-1 1-.3 1 .6 0 1.5-.5 1.8-1 .8-1.2.4-1.2-1.5 0zM1210.5 1357.2c15.6 30.1 23.5 59.2 23.5 87.2 0 8.5-1 18.5-3.6 35.5-9.4 62.8-20.3 112.1-31.3 141.8-6 16.1-18.2 62-24.1 90.3-1.2 5.8-2.3 11.1-2.6 11.8-.2.7-9.6-8.1-21.1-19.9-30.6-31.1-56.9-55.1-76.3-69.5-20.2-14.9-33.7-22.8-45.4-26.3-10.7-3.3-14.2-2.9-26.8 3.1l-10.9 5.1-6.4-2.2c-4.9-1.7-7.6-2.2-10.9-1.7-5.2.8-17.2 6.4-23.8 11.2-2.7 1.9-5.1 3.4-5.4 3.4-2.8 0-27.4 22.9-41.6 38.7-14 15.6-19 22.1-18.2 23.5.4.6.2.8-.3.5-1.1-.7-11 11.6-26.9 33.3-13.6 18.6-39.4 57.2-38.9 58.1.3.4-.1.9-.8 1.2-.6.3-2 1.9-3 3.6-3.3 5.6.6 2.4 4.7-3.9 2.1-3.3 4.2-6 4.7-6s.9-.6.9-1.3c0-.8 1.1-2.4 2.5-3.7 1.4-1.3 3.9-4.5 5.6-7.2 1.7-2.6 3.5-4.8 4-4.8s.8-.3.7-.8c-.4-1.1 5.1-9.2 6.3-9.2.5 0 .8-.4.5-.9-.3-.4.3-1.6 1.4-2.6 1.1-1 1.8-2.1 1.5-2.5-.2-.4 1.5-2.6 3.8-5s3.5-4.1 2.7-3.6c-1.3.6-1.3.6 0-.6.8-.7 2.1-2.5 2.8-3.9.8-1.4 2.7-4.1 4.3-6 1.6-1.9 3.2-4.2 3.5-5.2.3-.9 1-1.4 1.6-1.1.7.4.8.2.4-.5-.4-.6-.1-1.7.6-2.4.7-.8 2.2-2.6 3.3-4.2 1.1-1.5 2.8-3.7 3.8-4.7s1.5-2.4 1.1-3c-.4-.6-.3-.8.3-.5.6.4 1.7-.1 2.4-1 1.2-1.4 1.2-1.6-.1-.9-.9.4-.8.1.3-.7.9-.8 1.7-1.9 1.7-2.6 0-.6.7-1.1 1.6-1.1.8 0 1.3-.4 1-.9-.3-.4.3-1.6 1.3-2.5 1.7-1.5 2-1 7.1 11.1 15 36.4 33.7 65.6 50.6 79.5l7.2 5.9-5.5 13.2c-3 7.3-8.5 22.4-12.3 33.7-17.4 51.7-26.5 98.6-27.7 143.2l-.6 20.8h184l-.4-2.7c-10.2-88.2-28.8-165.6-51.4-213.1l-5.8-12.3 8-10.2c21.2-27.2 41.1-57.1 52.8-79.8 6.4-12.3 6.7-12.6 9.1-11.5 1.3.6 3.9 2.4 5.6 4.1 4.6 4.3 6.2 5.5 7.2 5.5.9 0 3.8 2.4 11.4 9.5 1.4 1.4 3.1 2.5 3.6 2.5.6 0 1.4.9 1.7 2 .3 1.1 1 2 1.5 2s2.7 1.8 4.9 3.9c2.2 2.1 4.1 3.7 4.3 3.5.3-.2 2.9 2.4 5.9 5.8 3 3.4 7.1 7.7 9.2 9.7 2 1.9 3.7 3.9 3.7 4.4 0 1 2.6 3.7 3.6 3.7.4 0 2.2 1.6 4.1 3.6 2.2 2.5 3.1 4.3 2.8 5.8-.3 1.1-1.8 11.8-3.5 23.6-3.6 25-35.7 234.4-36.5 237.7l-.5 2.3h404.5c270.9 0 404.5-.3 404.5-1 0-2.8-8.5-85.4-11.5-112-6.2-54.4-13.9-110.7-19.6-144.5-5.7-33.7-13.6-68.9-16.9-75.5-2.8-5.5-8.8-11-15.4-14.1-6.5-3.1-8.6-3.5-10.2-1.9-.6.6-7.5-1.8-19.9-7.1-153.4-65.5-340.6-126.3-493.9-160.4l-20.8-4.6-34.2-31.7c-18.7-17.4-34.2-32-34.4-32.3-.2-.4-3.8-6.6-8-13.8-10.1-17.2-19-29.6-28.2-39.5-6.9-7.3-18.1-16.6-20.1-16.6-.4 0 2.1 5.5 5.6 12.2zM984 1623.5c1.2-.8 18.9-.9 19.7-.2.3.4 2.5.7 4.8.7s4.5.3 4.8.7c.4.3 2.6.7 4.9.9 2.3.2 4.5.7 4.9 1.1.4.4-5.8.3-13.9-.4-8.1-.6-20.3-1.2-27.1-1.2-12.8-.1-15.4-.9-6-1.7 3-.3 5.6-.7 5.9-1 .2-.3.6 0 .8.5.2.6.7.9 1.2.6zm-15.3 1.1c-.3.3-1.2.4-1.9.1-.8-.3-.5-.6.6-.6 1.1-.1 1.7.2 1.3.5zM1077.5 1351c-.3.5-.1 1 .4 1 .6 0 1.1-.5 1.1-1 0-.6-.2-1-.4-1-.3 0-.8.4-1.1 1zM1072.7 1352.7c-1.1 1-.8 4.5.3 3.8.5-.3.7-1.2.3-2-.3-1 .1-1.5 1.2-1.5 1.2 0 1.5.5 1.1 1.6-.6 1.4-.4 1.5.9.4s1.3-1.5.3-2.1c-1.6-1.1-3.2-1.1-4.1-.2zM964.5 1389c-2.8.7-2.8.8-.5.9 1.4 0 3.2-.4 4-.9 1.7-1.1.8-1.1-3.5 0zM944 1398.2c0 1.4-.9 1.8-4.2 2l-4.3.1 4 .4c2.2.3 4.4 1 4.8 1.6.6.8.7.6.4-.5-.3-.9-.2-1.8.3-2 .6-.2.5-.9 0-1.8-.8-1.3-1-1.2-1 .2zM748.8 1408.8c-13.8 24.1-18.7 34.6-21.9 46.9-1.3 5.3-3.2 9.3-6.3 13.7-5.7 8-18.7 20.1-26.2 24.5-11.6 6.7-25.1 17.5-36.7 29.3l-11.8 12-65.2 21.8c-169.4 56.6-296.5 104-377.7 140.7-20.9 9.5-51.7 24.9-60.6 30.4-3.8 2.3-11.6 6.6-17.4 9.5-22.1 11.1-35.5 27.2-39.1 46.9-2.3 12.9-10.1 61.6-11.8 75-5.7 42.6-8.9 80-9.8 114.8l-.6 25.7H811l-.6-2.8c-1.5-8.7-24.1-166.8-25-175.5-.4-3.7-.3-6.7.2-6.7s2.3-1.4 4.1-3c1.8-1.7 3.5-3 3.8-3 .9 0 3.8-3 3.4-3.4-.2-.2-1.9-1.1-3.6-2-1.8-.9-4.1-3.3-5.1-5.4-2.2-4.3-9.8-24.6-10.7-28.2-.3-1.4-4.3-28.6-9-60.5-4.6-31.9-10-67.8-11.9-79.8-7-43.1-10.9-80.7-12.6-120.2-1.9-43.3 1.5-82.2 9.1-104.2 1-3.1 1.8-5.8 1.6-5.9-.2-.2-2.8 4-5.9 9.4zM888.1 1462.7c-.1 3.3 2 4.6 3.4 2.3.3-.6.1-1-.5-1s-1.5-1-2-2.3c-.8-2-.9-1.9-.9 1zM883 1465.4c0 2.3 1.6 2.7 1.7.5.1-1-.2-1.9-.8-1.9-.5 0-.9.6-.9 1.4zM872.2 1493.5c0 1.6.2 2.2.5 1.2.2-.9.2-2.3 0-3-.3-.6-.5.1-.5 1.8zM875.5 1505c.3.5 1 1 1.6 1 .5 0 .9-.5.9-1 0-.6-.7-1-1.6-1-.8 0-1.2.4-.9 1zM879 1510.4c0 .9.5 1.6 1 1.6.6 0 1-.4 1-.9 0-.6-.4-1.3-1-1.6-.5-.3-1 .1-1 .9zM885 1510.5c0 .8.4 1.5 1 1.5.5 0 .7-.7.4-1.5-.4-.8-.8-1.5-1-1.5-.2 0-.4.7-.4 1.5zM876 1522.4c0 .2.7.7 1.6 1 .8.3 1.2.2.9-.4-.6-1-2.5-1.4-2.5-.6zM880.3 1524.5c0 .8.4 1.2.9.9.5-.3.6-1 .3-1.5-.9-1.3-1.2-1.1-1.2.6z"/></svg>